<svg width="22" height="22" viewBox="0 0 22 22" fill="none" xmlns="http://www.w3.org/2000/svg">
<mask id="path-1-outside-1" maskUnits="userSpaceOnUse" x="-0.34635" y="-0.443848" width="22" height="23" fill="black">
<rect fill="white" x="-0.34635" y="-0.443848" width="22" height="23"/>
<path d="M3.01616 0.557184C2.91937 0.55711 2.83214 0.647969 2.83616 0.744684V8.65724C1.61775 8.75028 0.65365 9.76242 0.65365 11.0048C0.65365 12.2471 1.61775 13.2592 2.83616 13.3522V21.2648C2.83472 21.3599 2.92106 21.4448 3.01616 21.4448C3.11127 21.4448 3.19751 21.3599 3.19616 21.2648V13.3522C4.41457 13.2592 5.37867 12.2471 5.37867 11.0048C5.37867 9.76242 4.41457 8.75029 3.19616 8.65724V0.744684C3.20019 0.647969 3.11296 0.55711 3.01616 0.557184ZM8.55872 0.557184C8.47499 0.574848 8.41082 0.659285 8.41622 0.744684V14.4921C7.20136 14.5894 6.24122 15.6073 6.24122 16.8471C6.24122 18.0869 7.20136 19.098 8.41622 19.1947V21.2647C8.41478 21.3597 8.50112 21.4447 8.59622 21.4447C8.69133 21.4447 8.77756 21.3597 8.77622 21.2647V19.2021C9.99775 19.1129 10.9587 18.0922 10.9587 16.8471C10.9587 15.6021 9.99777 14.5744 8.77622 14.4846V0.74464C8.78025 0.647925 8.69302 0.557066 8.59622 0.55714C8.58376 0.55594 8.57117 0.55594 8.55872 0.55714V0.557184ZM13.8387 0.557184C13.755 0.574848 13.6908 0.659285 13.6962 0.744684V8.09468C12.4814 8.1913 11.5212 9.20239 11.5212 10.4422C11.5212 11.682 12.4814 12.6999 13.6962 12.7972V21.2646C13.6948 21.3597 13.7811 21.4446 13.8762 21.4446C13.9713 21.4446 14.0576 21.3597 14.0562 21.2646V12.8046C15.2777 12.7148 16.2387 11.6871 16.2387 10.4421C16.2387 9.19709 15.2778 8.17632 14.0562 8.08711V0.744552C14.0603 0.647837 13.973 0.556978 13.8762 0.557052C13.8638 0.555852 13.8512 0.555852 13.8387 0.557052V0.557184ZM18.9613 0.557184C18.8722 0.568296 18.7994 0.65503 18.8038 0.744684V2.8072C17.5852 2.90065 16.6213 3.92721 16.6213 5.16971C16.6213 6.41205 17.5854 7.42418 18.8038 7.5172V21.2647C18.8023 21.3597 18.8887 21.4447 18.9838 21.4447C19.0789 21.4447 19.1651 21.3597 19.1638 21.2647V7.5172C20.3822 7.42417 21.3463 6.41203 21.3463 5.16971C21.3463 3.92723 20.3824 2.90065 19.1638 2.8072V0.744684C19.168 0.645418 19.0755 0.552965 18.9763 0.557184C18.9713 0.556975 18.9663 0.556975 18.9613 0.557184ZM18.9838 3.16718C20.0923 3.16718 20.9863 4.06078 20.9863 5.1697C20.9863 6.27862 20.0923 7.17221 18.9838 7.17221C17.8752 7.17221 16.9813 6.27862 16.9813 5.1697C16.9813 4.06078 17.8752 3.16718 18.9838 3.16718ZM18.9838 4.18718C18.4424 4.18718 18.0013 4.62812 18.0013 5.1697C18.0013 5.71126 18.4424 6.15221 18.9838 6.15221C19.5251 6.15221 19.9663 5.71128 19.9663 5.1697C19.9663 4.62814 19.5251 4.18718 18.9838 4.18718ZM18.9838 4.5397C19.3306 4.5397 19.6063 4.82273 19.6063 5.1697C19.6063 5.51667 19.3306 5.79221 18.9838 5.79221C18.6369 5.79221 18.3538 5.51667 18.3538 5.1697C18.3538 4.82273 18.6369 4.5397 18.9838 4.5397ZM13.8838 8.4397C14.9923 8.4397 15.8863 9.33329 15.8863 10.4422C15.8863 11.5511 14.9923 12.4522 13.8838 12.4522C12.7752 12.4522 11.8738 11.5511 11.8738 10.4422C11.8738 9.33326 12.7752 8.4397 13.8838 8.4397ZM3.01633 9.00221C4.12487 9.00221 5.01884 9.89581 5.01884 11.0047C5.01884 12.1136 4.12489 13.0147 3.01633 13.0147C1.90779 13.0147 1.01382 12.1136 1.01382 11.0047C1.01382 9.89581 1.90777 9.00221 3.01633 9.00221ZM13.8763 9.46721C13.335 9.46721 12.8938 9.90814 12.8938 10.4497C12.8938 10.9913 13.335 11.4322 13.8763 11.4322C14.4177 11.4322 14.8663 10.9913 14.8663 10.4497C14.8663 9.90817 14.4177 9.46721 13.8763 9.46721ZM13.8763 9.82721C14.2232 9.82721 14.5063 10.1028 14.5063 10.4497C14.5063 10.7967 14.2232 11.0722 13.8763 11.0722C13.5295 11.0722 13.2538 10.7967 13.2538 10.4497C13.2538 10.1028 13.5295 9.82721 13.8763 9.82721ZM3.01633 10.0222C2.47499 10.0222 2.03382 10.4632 2.03382 11.0047C2.03382 11.5463 2.47496 11.9872 3.01633 11.9872C3.55767 11.9872 3.99884 11.5463 3.99884 11.0047C3.99884 10.4632 3.5577 10.0222 3.01633 10.0222ZM3.01633 10.3822C3.36315 10.3822 3.63884 10.6578 3.63884 11.0047C3.63884 11.3517 3.36318 11.6272 3.01633 11.6272C2.66951 11.6272 2.39382 11.3517 2.39382 11.0047C2.39382 10.6578 2.66948 10.3822 3.01633 10.3822ZM8.60377 14.8448C9.71231 14.8448 10.6063 15.7384 10.6063 16.8473C10.6063 17.9562 9.71233 18.8498 8.60377 18.8498C7.49523 18.8498 6.59377 17.9562 6.59377 16.8473C6.59377 15.7384 7.49523 14.8448 8.60377 14.8448ZM8.59628 15.8573C8.05494 15.8573 7.61377 16.3057 7.61377 16.8473C7.61377 17.3888 8.05491 17.8298 8.59628 17.8298C9.13762 17.8298 9.58628 17.3888 9.58628 16.8473C9.58628 16.3057 9.13762 15.8573 8.59628 15.8573ZM8.59628 16.2173C8.9431 16.2173 9.22628 16.5003 9.22628 16.8473C9.22628 17.1942 8.9431 17.4698 8.59628 17.4698C8.24946 17.4698 7.97377 17.1942 7.97377 16.8473C7.97377 16.5003 8.24943 16.2173 8.59628 16.2173Z"/>
</mask>
<path d="M3.01616 0.557184C2.91937 0.55711 2.83214 0.647969 2.83616 0.744684V8.65724C1.61775 8.75028 0.65365 9.76242 0.65365 11.0048C0.65365 12.2471 1.61775 13.2592 2.83616 13.3522V21.2648C2.83472 21.3599 2.92106 21.4448 3.01616 21.4448C3.11127 21.4448 3.19751 21.3599 3.19616 21.2648V13.3522C4.41457 13.2592 5.37867 12.2471 5.37867 11.0048C5.37867 9.76242 4.41457 8.75029 3.19616 8.65724V0.744684C3.20019 0.647969 3.11296 0.55711 3.01616 0.557184ZM8.55872 0.557184C8.47499 0.574848 8.41082 0.659285 8.41622 0.744684V14.4921C7.20136 14.5894 6.24122 15.6073 6.24122 16.8471C6.24122 18.0869 7.20136 19.098 8.41622 19.1947V21.2647C8.41478 21.3597 8.50112 21.4447 8.59622 21.4447C8.69133 21.4447 8.77756 21.3597 8.77622 21.2647V19.2021C9.99775 19.1129 10.9587 18.0922 10.9587 16.8471C10.9587 15.6021 9.99777 14.5744 8.77622 14.4846V0.74464C8.78025 0.647925 8.69302 0.557066 8.59622 0.55714C8.58376 0.55594 8.57117 0.55594 8.55872 0.55714V0.557184ZM13.8387 0.557184C13.755 0.574848 13.6908 0.659285 13.6962 0.744684V8.09468C12.4814 8.1913 11.5212 9.20239 11.5212 10.4422C11.5212 11.682 12.4814 12.6999 13.6962 12.7972V21.2646C13.6948 21.3597 13.7811 21.4446 13.8762 21.4446C13.9713 21.4446 14.0576 21.3597 14.0562 21.2646V12.8046C15.2777 12.7148 16.2387 11.6871 16.2387 10.4421C16.2387 9.19709 15.2778 8.17632 14.0562 8.08711V0.744552C14.0603 0.647837 13.973 0.556978 13.8762 0.557052C13.8638 0.555852 13.8512 0.555852 13.8387 0.557052V0.557184ZM18.9613 0.557184C18.8722 0.568296 18.7994 0.65503 18.8038 0.744684V2.8072C17.5852 2.90065 16.6213 3.92721 16.6213 5.16971C16.6213 6.41205 17.5854 7.42418 18.8038 7.5172V21.2647C18.8023 21.3597 18.8887 21.4447 18.9838 21.4447C19.0789 21.4447 19.1651 21.3597 19.1638 21.2647V7.5172C20.3822 7.42417 21.3463 6.41203 21.3463 5.16971C21.3463 3.92723 20.3824 2.90065 19.1638 2.8072V0.744684C19.168 0.645418 19.0755 0.552965 18.9763 0.557184C18.9713 0.556975 18.9663 0.556975 18.9613 0.557184ZM18.9838 3.16718C20.0923 3.16718 20.9863 4.06078 20.9863 5.1697C20.9863 6.27862 20.0923 7.17221 18.9838 7.17221C17.8752 7.17221 16.9813 6.27862 16.9813 5.1697C16.9813 4.06078 17.8752 3.16718 18.9838 3.16718ZM18.9838 4.18718C18.4424 4.18718 18.0013 4.62812 18.0013 5.1697C18.0013 5.71126 18.4424 6.15221 18.9838 6.15221C19.5251 6.15221 19.9663 5.71128 19.9663 5.1697C19.9663 4.62814 19.5251 4.18718 18.9838 4.18718ZM18.9838 4.5397C19.3306 4.5397 19.6063 4.82273 19.6063 5.1697C19.6063 5.51667 19.3306 5.79221 18.9838 5.79221C18.6369 5.79221 18.3538 5.51667 18.3538 5.1697C18.3538 4.82273 18.6369 4.5397 18.9838 4.5397ZM13.8838 8.4397C14.9923 8.4397 15.8863 9.33329 15.8863 10.4422C15.8863 11.5511 14.9923 12.4522 13.8838 12.4522C12.7752 12.4522 11.8738 11.5511 11.8738 10.4422C11.8738 9.33326 12.7752 8.4397 13.8838 8.4397ZM3.01633 9.00221C4.12487 9.00221 5.01884 9.89581 5.01884 11.0047C5.01884 12.1136 4.12489 13.0147 3.01633 13.0147C1.90779 13.0147 1.01382 12.1136 1.01382 11.0047C1.01382 9.89581 1.90777 9.00221 3.01633 9.00221ZM13.8763 9.46721C13.335 9.46721 12.8938 9.90814 12.8938 10.4497C12.8938 10.9913 13.335 11.4322 13.8763 11.4322C14.4177 11.4322 14.8663 10.9913 14.8663 10.4497C14.8663 9.90817 14.4177 9.46721 13.8763 9.46721ZM13.8763 9.82721C14.2232 9.82721 14.5063 10.1028 14.5063 10.4497C14.5063 10.7967 14.2232 11.0722 13.8763 11.0722C13.5295 11.0722 13.2538 10.7967 13.2538 10.4497C13.2538 10.1028 13.5295 9.82721 13.8763 9.82721ZM3.01633 10.0222C2.47499 10.0222 2.03382 10.4632 2.03382 11.0047C2.03382 11.5463 2.47496 11.9872 3.01633 11.9872C3.55767 11.9872 3.99884 11.5463 3.99884 11.0047C3.99884 10.4632 3.5577 10.0222 3.01633 10.0222ZM3.01633 10.3822C3.36315 10.3822 3.63884 10.6578 3.63884 11.0047C3.63884 11.3517 3.36318 11.6272 3.01633 11.6272C2.66951 11.6272 2.39382 11.3517 2.39382 11.0047C2.39382 10.6578 2.66948 10.3822 3.01633 10.3822ZM8.60377 14.8448C9.71231 14.8448 10.6063 15.7384 10.6063 16.8473C10.6063 17.9562 9.71233 18.8498 8.60377 18.8498C7.49523 18.8498 6.59377 17.9562 6.59377 16.8473C6.59377 15.7384 7.49523 14.8448 8.60377 14.8448ZM8.59628 15.8573C8.05494 15.8573 7.61377 16.3057 7.61377 16.8473C7.61377 17.3888 8.05491 17.8298 8.59628 17.8298C9.13762 17.8298 9.58628 17.3888 9.58628 16.8473C9.58628 16.3057 9.13762 15.8573 8.59628 15.8573ZM8.59628 16.2173C8.9431 16.2173 9.22628 16.5003 9.22628 16.8473C9.22628 17.1942 8.9431 17.4698 8.59628 17.4698C8.24946 17.4698 7.97377 17.1942 7.97377 16.8473C7.97377 16.5003 8.24943 16.2173 8.59628 16.2173Z" fill="#FFD11C"/>
<path d="M3.01616 0.557184C2.91937 0.55711 2.83214 0.647969 2.83616 0.744684V8.65724C1.61775 8.75028 0.65365 9.76242 0.65365 11.0048C0.65365 12.2471 1.61775 13.2592 2.83616 13.3522V21.2648C2.83472 21.3599 2.92106 21.4448 3.01616 21.4448C3.11127 21.4448 3.19751 21.3599 3.19616 21.2648V13.3522C4.41457 13.2592 5.37867 12.2471 5.37867 11.0048C5.37867 9.76242 4.41457 8.75029 3.19616 8.65724V0.744684C3.20019 0.647969 3.11296 0.55711 3.01616 0.557184ZM8.55872 0.557184C8.47499 0.574848 8.41082 0.659285 8.41622 0.744684V14.4921C7.20136 14.5894 6.24122 15.6073 6.24122 16.8471C6.24122 18.0869 7.20136 19.098 8.41622 19.1947V21.2647C8.41478 21.3597 8.50112 21.4447 8.59622 21.4447C8.69133 21.4447 8.77756 21.3597 8.77622 21.2647V19.2021C9.99775 19.1129 10.9587 18.0922 10.9587 16.8471C10.9587 15.6021 9.99777 14.5744 8.77622 14.4846V0.74464C8.78025 0.647925 8.69302 0.557066 8.59622 0.55714C8.58376 0.55594 8.57117 0.55594 8.55872 0.55714V0.557184ZM13.8387 0.557184C13.755 0.574848 13.6908 0.659285 13.6962 0.744684V8.09468C12.4814 8.1913 11.5212 9.20239 11.5212 10.4422C11.5212 11.682 12.4814 12.6999 13.6962 12.7972V21.2646C13.6948 21.3597 13.7811 21.4446 13.8762 21.4446C13.9713 21.4446 14.0576 21.3597 14.0562 21.2646V12.8046C15.2777 12.7148 16.2387 11.6871 16.2387 10.4421C16.2387 9.19709 15.2778 8.17632 14.0562 8.08711V0.744552C14.0603 0.647837 13.973 0.556978 13.8762 0.557052C13.8638 0.555852 13.8512 0.555852 13.8387 0.557052V0.557184ZM18.9613 0.557184C18.8722 0.568296 18.7994 0.65503 18.8038 0.744684V2.8072C17.5852 2.90065 16.6213 3.92721 16.6213 5.16971C16.6213 6.41205 17.5854 7.42418 18.8038 7.5172V21.2647C18.8023 21.3597 18.8887 21.4447 18.9838 21.4447C19.0789 21.4447 19.1651 21.3597 19.1638 21.2647V7.5172C20.3822 7.42417 21.3463 6.41203 21.3463 5.16971C21.3463 3.92723 20.3824 2.90065 19.1638 2.8072V0.744684C19.168 0.645418 19.0755 0.552965 18.9763 0.557184C18.9713 0.556975 18.9663 0.556975 18.9613 0.557184ZM18.9838 3.16718C20.0923 3.16718 20.9863 4.06078 20.9863 5.1697C20.9863 6.27862 20.0923 7.17221 18.9838 7.17221C17.8752 7.17221 16.9813 6.27862 16.9813 5.1697C16.9813 4.06078 17.8752 3.16718 18.9838 3.16718ZM18.9838 4.18718C18.4424 4.18718 18.0013 4.62812 18.0013 5.1697C18.0013 5.71126 18.4424 6.15221 18.9838 6.15221C19.5251 6.15221 19.9663 5.71128 19.9663 5.1697C19.9663 4.62814 19.5251 4.18718 18.9838 4.18718ZM18.9838 4.5397C19.3306 4.5397 19.6063 4.82273 19.6063 5.1697C19.6063 5.51667 19.3306 5.79221 18.9838 5.79221C18.6369 5.79221 18.3538 5.51667 18.3538 5.1697C18.3538 4.82273 18.6369 4.5397 18.9838 4.5397ZM13.8838 8.4397C14.9923 8.4397 15.8863 9.33329 15.8863 10.4422C15.8863 11.5511 14.9923 12.4522 13.8838 12.4522C12.7752 12.4522 11.8738 11.5511 11.8738 10.4422C11.8738 9.33326 12.7752 8.4397 13.8838 8.4397ZM3.01633 9.00221C4.12487 9.00221 5.01884 9.89581 5.01884 11.0047C5.01884 12.1136 4.12489 13.0147 3.01633 13.0147C1.90779 13.0147 1.01382 12.1136 1.01382 11.0047C1.01382 9.89581 1.90777 9.00221 3.01633 9.00221ZM13.8763 9.46721C13.335 9.46721 12.8938 9.90814 12.8938 10.4497C12.8938 10.9913 13.335 11.4322 13.8763 11.4322C14.4177 11.4322 14.8663 10.9913 14.8663 10.4497C14.8663 9.90817 14.4177 9.46721 13.8763 9.46721ZM13.8763 9.82721C14.2232 9.82721 14.5063 10.1028 14.5063 10.4497C14.5063 10.7967 14.2232 11.0722 13.8763 11.0722C13.5295 11.0722 13.2538 10.7967 13.2538 10.4497C13.2538 10.1028 13.5295 9.82721 13.8763 9.82721ZM3.01633 10.0222C2.47499 10.0222 2.03382 10.4632 2.03382 11.0047C2.03382 11.5463 2.47496 11.9872 3.01633 11.9872C3.55767 11.9872 3.99884 11.5463 3.99884 11.0047C3.99884 10.4632 3.5577 10.0222 3.01633 10.0222ZM3.01633 10.3822C3.36315 10.3822 3.63884 10.6578 3.63884 11.0047C3.63884 11.3517 3.36318 11.6272 3.01633 11.6272C2.66951 11.6272 2.39382 11.3517 2.39382 11.0047C2.39382 10.6578 2.66948 10.3822 3.01633 10.3822ZM8.60377 14.8448C9.71231 14.8448 10.6063 15.7384 10.6063 16.8473C10.6063 17.9562 9.71233 18.8498 8.60377 18.8498C7.49523 18.8498 6.59377 17.9562 6.59377 16.8473C6.59377 15.7384 7.49523 14.8448 8.60377 14.8448ZM8.59628 15.8573C8.05494 15.8573 7.61377 16.3057 7.61377 16.8473C7.61377 17.3888 8.05491 17.8298 8.59628 17.8298C9.13762 17.8298 9.58628 17.3888 9.58628 16.8473C9.58628 16.3057 9.13762 15.8573 8.59628 15.8573ZM8.59628 16.2173C8.9431 16.2173 9.22628 16.5003 9.22628 16.8473C9.22628 17.1942 8.9431 17.4698 8.59628 17.4698C8.24946 17.4698 7.97377 17.1942 7.97377 16.8473C7.97377 16.5003 8.24943 16.2173 8.59628 16.2173Z" stroke="#FFD11C" stroke-width="0.4" mask="url(#path-1-outside-1)"/>
</svg>
