<svg width="10" height="22" viewBox="0 0 10 22" fill="none" xmlns="http://www.w3.org/2000/svg">
<path d="M6.1345 4.93796C6.1345 5.56318 5.62522 6.07246 5 6.07246C4.37478 6.07246 3.8655 5.56318 3.8655 4.93796C3.8655 4.31273 4.37478 3.80345 5 3.80345C5.62522 3.80345 6.1345 4.31273 6.1345 4.93796Z" stroke="#FFD11C" stroke-width="0.9"/>
<path d="M3.34552 8.58839L3.34625 8.58886C3.46984 8.66825 3.602 8.81365 3.70378 9.00002C3.80555 9.18638 3.85647 9.37621 3.85648 9.52322C3.85648 9.52323 3.85648 9.52324 3.85648 9.52325L3.85601 16.8292L2.7357 16.5339L2.17098 16.385V16.969V18.8085V19.3926L2.73576 19.2436L3.85597 18.9481V20.2365V20.3461L3.90633 20.4433C3.95089 20.5294 4.0694 20.7451 4.22075 21.0149L4.33021 21.21L4.55188 21.2405C4.6339 21.2518 4.76903 21.2623 4.99973 21.2623C5.22744 21.2623 5.36255 21.2521 5.445 21.2409L5.68021 21.209L5.78667 20.9968C5.98518 20.6013 6.14297 19.9821 6.14297 19.5492V9.5235C6.14297 9.37656 6.19391 9.18676 6.29576 9.0004C6.39761 8.81403 6.52987 8.6686 6.65359 8.58918L6.65359 8.58918L6.65544 8.58798C6.6798 8.57217 7.29609 8.16964 7.91151 7.53733C8.50991 6.92252 9.19998 5.99704 9.19998 4.938C9.19998 2.62153 7.31631 0.7375 4.99998 0.7375C2.68368 0.7375 0.799725 2.62149 0.799725 4.938C0.799725 5.99814 1.48987 6.9236 2.08851 7.53825C2.70402 8.17022 3.3204 8.57218 3.34552 8.58839ZM4.99998 3.4285C5.83195 3.4285 6.50948 4.10603 6.50948 4.938C6.50948 5.76997 5.83195 6.4475 4.99998 6.4475C4.168 6.4475 3.49047 5.76997 3.49047 4.938C3.49047 4.10603 4.168 3.4285 4.99998 3.4285Z" stroke="#FFD11C" stroke-width="0.9"/>
<path d="M5 6.89745C6.0805 6.89745 6.9595 6.01846 6.9595 4.93795C6.9595 3.85745 6.0805 2.97845 5 2.97845C3.9195 2.97845 3.0405 3.85745 3.0405 4.93795C3.0405 6.01846 3.9195 6.89745 5 6.89745ZM5 3.35345C5.87375 3.35345 6.5845 4.0642 6.5845 4.93795C6.5845 5.8117 5.87375 6.52245 5 6.52245C4.12625 6.52245 3.4155 5.8117 3.4155 4.93795C3.4155 4.0642 4.12625 3.35345 5 3.35345Z" fill="#FFD11C"/>
<mask id="path-4-inside-1" fill="white">
<path d="M3.38698 8.52575C3.68223 8.7155 3.93173 9.17225 3.93173 9.5235L3.93122 16.9268L2.24623 16.4825V19.295L3.93122 18.851V20.295L3.93797 20.4825H4.01223C4.07898 20.6068 4.19348 20.8132 4.32398 21.0452C4.37373 21.1337 4.44398 21.1875 4.99998 21.1875C5.55398 21.1875 5.62723 21.1313 5.67648 21.045C5.89623 20.6542 6.06822 19.9975 6.06822 19.5495V9.5235C6.06822 9.1725 6.31798 8.71575 6.61347 8.52575C6.71597 8.46 9.12498 6.88975 9.12498 4.938C9.12498 2.66325 7.27448 0.8125 4.99998 0.8125C2.72523 0.8125 0.874725 2.66325 0.874725 4.938C0.874725 6.8895 3.28448 8.45975 3.38698 8.52575ZM4.99998 1.1875C7.06773 1.1875 8.74998 2.87 8.74998 4.938C8.74998 6.6845 6.43398 8.19525 6.41098 8.21025C6.00873 8.46875 5.69347 9.0455 5.69347 9.52325V19.5492C5.69347 19.9055 5.55498 20.4557 5.38498 20.795C5.32973 20.8025 5.21648 20.8123 5.00023 20.8123C4.78122 20.8123 4.66823 20.8022 4.61373 20.7948C4.46173 20.5238 4.34698 20.3148 4.30648 20.2365V18.364L2.62148 18.8085V16.969L4.30648 17.4132L4.30698 9.52325C4.30698 9.04525 3.99198 8.4685 3.58998 8.21025C3.56648 8.19525 1.25023 6.68675 1.25023 4.938C1.24973 2.87 2.93223 1.1875 4.99998 1.1875Z"/>
</mask>
<path d="M3.38698 8.52575C3.68223 8.7155 3.93173 9.17225 3.93173 9.5235L3.93122 16.9268L2.24623 16.4825V19.295L3.93122 18.851V20.295L3.93797 20.4825H4.01223C4.07898 20.6068 4.19348 20.8132 4.32398 21.0452C4.37373 21.1337 4.44398 21.1875 4.99998 21.1875C5.55398 21.1875 5.62723 21.1313 5.67648 21.045C5.89623 20.6542 6.06822 19.9975 6.06822 19.5495V9.5235C6.06822 9.1725 6.31798 8.71575 6.61347 8.52575C6.71597 8.46 9.12498 6.88975 9.12498 4.938C9.12498 2.66325 7.27448 0.8125 4.99998 0.8125C2.72523 0.8125 0.874725 2.66325 0.874725 4.938C0.874725 6.8895 3.28448 8.45975 3.38698 8.52575ZM4.99998 1.1875C7.06773 1.1875 8.74998 2.87 8.74998 4.938C8.74998 6.6845 6.43398 8.19525 6.41098 8.21025C6.00873 8.46875 5.69347 9.0455 5.69347 9.52325V19.5492C5.69347 19.9055 5.55498 20.4557 5.38498 20.795C5.32973 20.8025 5.21648 20.8123 5.00023 20.8123C4.78122 20.8123 4.66823 20.8022 4.61373 20.7948C4.46173 20.5238 4.34698 20.3148 4.30648 20.2365V18.364L2.62148 18.8085V16.969L4.30648 17.4132L4.30698 9.52325C4.30698 9.04525 3.99198 8.4685 3.58998 8.21025C3.56648 8.19525 1.25023 6.68675 1.25023 4.938C1.24973 2.87 2.93223 1.1875 4.99998 1.1875Z" fill="#FFD11C"/>
<path d="M3.38698 8.52575L2.89973 9.28245L2.90039 9.28287L3.38698 8.52575ZM3.93173 9.5235L4.83173 9.52356V9.5235H3.93173ZM3.93122 16.9268L3.70178 17.797L4.83115 18.0948L4.83122 16.9268L3.93122 16.9268ZM2.24623 16.4825L2.47567 15.6122L1.34623 15.3145V16.4825H2.24623ZM2.24623 19.295H1.34623V20.4629L2.47555 20.1653L2.24623 19.295ZM3.93122 18.851H4.83122V17.6831L3.7019 17.9807L3.93122 18.851ZM3.93122 20.295H3.03122V20.3112L3.03181 20.3274L3.93122 20.295ZM3.93797 20.4825L3.03856 20.5149L3.06979 21.3825H3.93797V20.4825ZM4.01223 20.4825L4.80506 20.0566L4.55038 19.5825H4.01223V20.4825ZM4.32398 21.0452L5.10851 20.6042L5.10839 20.604L4.32398 21.0452ZM5.67648 21.045L6.45805 21.4913L6.46093 21.4862L5.67648 21.045ZM6.61347 8.52575L6.12754 7.76821L6.12673 7.76873L6.61347 8.52575ZM6.41098 8.21025L6.89755 8.9674L6.90262 8.9641L6.41098 8.21025ZM5.38498 20.795L5.50604 21.6868L5.97678 21.6229L6.1896 21.1982L5.38498 20.795ZM4.61373 20.7948L3.82877 21.235L4.04769 21.6253L4.49103 21.6863L4.61373 20.7948ZM4.30648 20.2365H3.40648V20.4556L3.50719 20.6502L4.30648 20.2365ZM4.30648 18.364H5.20648V17.1958L4.07691 17.4938L4.30648 18.364ZM2.62148 18.8085H1.72148V19.9767L2.85104 19.6787L2.62148 18.8085ZM2.62148 16.969L2.85092 16.0987L1.72148 15.801V16.969H2.62148ZM4.30648 17.4132L4.07703 18.2835L5.2064 18.5813L5.20648 17.4133L4.30648 17.4132ZM4.30698 9.52325L5.20698 9.52331V9.52325H4.30698ZM3.58998 8.21025L4.07642 7.45303L4.07421 7.45162L3.58998 8.21025ZM1.25023 4.938H2.15023V4.93778L1.25023 4.938ZM2.90039 9.28287C2.88754 9.27461 2.89516 9.27705 2.91616 9.30131C2.93598 9.32421 2.95891 9.35648 2.98017 9.3954C3.00142 9.43432 3.01617 9.47106 3.02472 9.50013C3.03378 9.53092 3.03173 9.5387 3.03173 9.5235H4.83173C4.83173 9.15546 4.70846 8.80465 4.55997 8.53272C4.41149 8.26082 4.18305 7.96753 3.87356 7.76863L2.90039 9.28287ZM3.03173 9.52344L3.03122 16.9267L4.83122 16.9268L4.83173 9.52356L3.03173 9.52344ZM4.16067 16.0565L2.47567 15.6122L2.01678 17.3528L3.70178 17.797L4.16067 16.0565ZM1.34623 16.4825V19.295H3.14623V16.4825H1.34623ZM2.47555 20.1653L4.16055 19.7213L3.7019 17.9807L2.0169 18.4247L2.47555 20.1653ZM3.03122 18.851V20.295H4.83122V18.851H3.03122ZM3.03181 20.3274L3.03856 20.5149L4.83739 20.4501L4.83064 20.2626L3.03181 20.3274ZM3.93797 21.3825H4.01223V19.5825H3.93797V21.3825ZM3.21939 20.9084C3.29046 21.0407 3.40848 21.2535 3.53956 21.4865L5.10839 20.604C4.97847 20.373 4.86749 20.1728 4.80506 20.0566L3.21939 20.9084ZM3.53944 21.4863C3.57963 21.5578 3.6627 21.6919 3.81662 21.8127C3.96406 21.9285 4.11857 21.9872 4.2435 22.02C4.46103 22.0772 4.72292 22.0875 4.99998 22.0875V20.2875C4.87322 20.2875 4.78899 20.2844 4.73415 20.2802C4.67563 20.2759 4.67335 20.2719 4.70076 20.2791C4.73242 20.2874 4.82528 20.3161 4.92818 20.3969C5.03757 20.4828 5.0932 20.577 5.10851 20.6042L3.53944 21.4863ZM4.99998 22.0875C5.27883 22.0875 5.54027 22.0763 5.75812 22.0185C5.88224 21.9856 6.03409 21.9275 6.1793 21.815C6.33188 21.6967 6.41573 21.5654 6.45803 21.4913L4.89492 20.5987C4.91259 20.5678 4.96883 20.4758 5.0765 20.3923C5.17682 20.3146 5.26649 20.2867 5.29689 20.2786C5.32344 20.2716 5.32061 20.2756 5.26302 20.28C5.20886 20.2842 5.12543 20.2875 4.99998 20.2875V22.0875ZM6.46093 21.4862C6.75642 20.9608 6.96823 20.1521 6.96823 19.5495H5.16822C5.16822 19.8429 5.03604 20.3477 4.89202 20.6038L6.46093 21.4862ZM6.96823 19.5495V9.5235H5.16822V19.5495H6.96823ZM6.96823 9.5235C6.96823 9.53893 6.96613 9.53131 6.97518 9.50058C6.98373 9.47157 6.99848 9.43485 7.01977 9.3959C7.04105 9.35696 7.06405 9.32462 7.08397 9.30162C7.10506 9.27726 7.11284 9.27466 7.10022 9.28277L6.12673 7.76873C5.81743 7.9676 5.58892 8.26069 5.44031 8.5326C5.29173 8.80442 5.16822 9.15529 5.16822 9.5235H6.96823ZM7.09941 9.28329C7.17869 9.23244 7.87347 8.77884 8.55887 8.06035C9.21913 7.36823 10.025 6.27015 10.025 4.938H8.22498C8.22498 5.5576 7.82632 6.22052 7.25645 6.8179C6.71173 7.38891 6.15076 7.75331 6.12754 7.76821L7.09941 9.28329ZM10.025 4.938C10.025 2.1663 7.77164 -0.0875 4.99998 -0.0875V1.7125C6.77731 1.7125 8.22498 3.1602 8.22498 4.938H10.025ZM4.99998 -0.0875C2.2281 -0.0875 -0.0252746 2.16627 -0.0252746 4.938H1.77473C1.77473 3.16024 3.22235 1.7125 4.99998 1.7125V-0.0875ZM-0.0252746 4.938C-0.0252746 6.27016 0.780911 7.36822 1.4413 8.06026C2.12702 8.77887 2.82206 9.23243 2.89973 9.28245L3.87422 7.76905C3.8494 7.75307 3.2883 7.38851 2.74353 6.81761C2.17341 6.22016 1.77473 5.55734 1.77473 4.938H-0.0252746ZM4.99998 2.0875C6.57055 2.0875 7.84998 3.36694 7.84998 4.938H9.64997C9.64997 2.37306 7.5649 0.2875 4.99998 0.2875V2.0875ZM7.84998 4.938C7.84998 5.43968 7.49311 6.03166 6.94413 6.59573C6.68986 6.857 6.43161 7.07413 6.23432 7.22726C6.13642 7.30325 6.05538 7.36204 5.99982 7.40117C5.97208 7.42071 5.95083 7.43525 5.93715 7.44449C5.93032 7.44911 5.92538 7.4524 5.92247 7.45433C5.92102 7.45529 5.92006 7.45592 5.91962 7.45622C5.9195 7.45629 5.91942 7.45634 5.91937 7.45638C5.91931 7.45641 5.91929 7.45643 5.91929 7.45643C5.91926 7.45645 5.91932 7.45641 5.9193 7.45642C5.91929 7.45643 5.91935 7.45639 5.91933 7.4564C5.91936 7.45638 5.91939 7.45637 5.91933 7.4564L6.90262 8.9641C6.93732 8.94146 7.58504 8.51802 8.23407 7.85114C8.84884 7.21946 9.64997 6.18282 9.64997 4.938H7.84998ZM5.92441 7.45311C5.56869 7.68171 5.29519 8.01704 5.11162 8.35293C4.92809 8.68877 4.79347 9.10018 4.79347 9.52325H6.59347C6.59347 9.46857 6.61649 9.35273 6.69114 9.21614C6.76576 9.07958 6.85101 8.99729 6.89754 8.96739L5.92441 7.45311ZM4.79347 9.52325V19.5492H6.59347V9.52325H4.79347ZM4.79347 19.5492C4.79347 19.7515 4.69423 20.1645 4.58035 20.3918L6.1896 21.1982C6.41572 20.747 6.59347 20.0595 6.59347 19.5492H4.79347ZM5.26391 19.9032C5.26518 19.903 5.24779 19.9054 5.20425 19.9078C5.16105 19.9101 5.0952 19.9123 5.00023 19.9123V21.7122C5.2394 21.7122 5.39638 21.7017 5.50604 21.6868L5.26391 19.9032ZM5.00023 19.9123C4.8046 19.9123 4.73588 19.9031 4.73642 19.9032L4.49103 21.6863C4.60057 21.7014 4.75785 21.7122 5.00023 21.7122V19.9123ZM5.39868 20.3545C5.24538 20.0812 5.13814 19.8854 5.10576 19.8228L3.50719 20.6502C3.55581 20.7441 3.67807 20.9663 3.82877 21.235L5.39868 20.3545ZM5.20648 20.2365V18.364H3.40648V20.2365H5.20648ZM4.07691 17.4938L2.39191 17.9383L2.85104 19.6787L4.53604 19.2342L4.07691 17.4938ZM3.52148 18.8085V16.969H1.72148V18.8085H3.52148ZM2.39203 17.8393L4.07703 18.2835L4.53592 16.543L2.85092 16.0987L2.39203 17.8393ZM5.20648 17.4133L5.20698 9.52331L3.40698 9.52319L3.40648 17.4132L5.20648 17.4133ZM5.20698 9.52325C5.20698 9.10028 5.07256 8.68889 4.88912 8.35298C4.70568 8.01708 4.43225 7.68163 4.07642 7.45304L3.10353 8.96746C3.1497 8.99712 3.23477 9.07917 3.30934 9.21571C3.38389 9.35223 3.40698 9.46822 3.40698 9.52325H5.20698ZM4.07421 7.45162C4.0938 7.46412 3.57158 7.12571 3.05604 6.59635C2.50729 6.0329 2.15023 5.44087 2.15023 4.938H0.350225C0.350225 6.18388 1.15128 7.22047 1.76654 7.85221C2.41499 8.51804 3.06265 8.94138 3.10574 8.96888L4.07421 7.45162ZM2.15023 4.93778C2.14985 3.36701 3.42928 2.0875 4.99998 2.0875V0.2875C2.43517 0.2875 0.349605 2.37299 0.350225 4.93822L2.15023 4.93778Z" fill="#FFD11C" mask="url(#path-4-inside-1)"/>
</svg>
