<svg width="16" height="22" viewBox="0 0 16 22" fill="none" xmlns="http://www.w3.org/2000/svg">
<path d="M15.0056 10.4685C15.0056 10.2035 14.7906 9.98846 14.5256 9.98846C14.2606 9.98846 14.0456 10.2035 14.0456 10.4685C14.0456 13.8021 11.3336 16.5138 8 16.5138C4.6664 16.5138 1.9544 13.8018 1.9544 10.4685C1.9544 10.2035 1.73936 9.98846 1.4744 9.98846C1.20944 9.98846 0.9944 10.2035 0.9944 10.4685C0.9944 14.1697 3.8804 17.2079 7.52 17.4556V20.8401H5.45216C5.1872 20.8401 4.97216 21.0551 4.97216 21.3201C4.97216 21.585 5.1872 21.8001 5.45216 21.8001H10.5476C10.8126 21.8001 11.0276 21.585 11.0276 21.3201C11.0276 21.0551 10.8126 20.8401 10.5476 20.8401H8.48V17.4556C12.1196 17.2079 15.0056 14.1697 15.0056 10.4685Z" fill="#FFD11C"/>
<path d="M8 15.6095C10.8349 15.6095 13.141 13.3033 13.141 10.4684V5.34105C13.141 2.50617 10.8349 0.200012 8 0.200012C5.16512 0.200012 2.85896 2.50617 2.85896 5.34105V10.4684C2.85896 13.3033 5.16512 15.6095 8 15.6095ZM3.81896 5.34105C3.81896 3.03561 5.69456 1.16001 8 1.16001C10.3054 1.16001 12.181 3.03561 12.181 5.34105V10.4684C12.181 12.7736 10.3054 14.6495 8 14.6495C5.69456 14.6495 3.81896 12.7739 3.81896 10.4684V5.34105Z" fill="#FFD11C"/>
<path d="M6.05889 5.63743H8.96409H9.94089C10.2058 5.63743 10.4209 5.42239 10.4209 5.15743C10.4209 4.89247 10.2058 4.67743 9.94089 4.67743H8.96409H6.05889C5.79393 4.67743 5.57889 4.89247 5.57889 5.15743C5.57889 5.42239 5.79393 5.63743 6.05889 5.63743Z" fill="#FFD11C"/>
<path d="M9.9411 10.172H9.09294H8.5671H6.1035C5.83854 10.172 5.6235 10.387 5.6235 10.652C5.6235 10.917 5.83854 11.132 6.1035 11.132H8.5671H9.09294H9.9411C10.2061 11.132 10.4211 10.917 10.4211 10.652C10.4211 10.387 10.2061 10.172 9.9411 10.172Z" fill="#FFD11C"/>
<path d="M6.05889 8.38499H9.94113C10.2061 8.38499 10.4211 8.16995 10.4211 7.90499C10.4211 7.64003 10.2061 7.42499 9.94113 7.42499H6.05889C5.79393 7.42499 5.57889 7.64003 5.57889 7.90499C5.57889 8.16995 5.79393 8.38499 6.05889 8.38499Z" fill="#FFD11C"/>
</svg>
